<?xml version="1.0" encoding="utf-8"?>
<!-- Svg Vector Icons : http://www.onlinewebfonts.com/icon -->
<!DOCTYPE svg PUBLIC "-//W3C//DTD SVG 1.1//EN" "http://www.w3.org/Graphics/SVG/1.1/DTD/svg11.dtd">
<svg version="1.1" xmlns="http://www.w3.org/2000/svg" xmlns:xlink="http://www.w3.org/1999/xlink" x="0px" y="0px" viewBox="0 0 1000 1000" enable-background="new 0 0 1000 1000" xml:space="preserve">
<metadata> Svg Vector Icons : http://www.onlinewebfonts.com/icon </metadata>
<g><g transform="translate(0.000000,511.000000) scale(0.100000,-0.100000)"><path d="M1522.5,5011.7c-414-81.2-738.9-360.5-897.4-774.6l-43.6-114.9l-5.9-3108.1l-4-3106.2l-99-110.9c-116.9-130.8-281.3-449.7-326.9-635.9c-196.1-772.6,255.5-1596.7,1024.2-1868c227.8-81.2,485.3-108.9,699.3-79.2c348.7,51.5,675.5,213.9,921.2,459.6c118.9,118.9,285.3,352.6,334.8,467.5c17.8,43.6,75.3,85.2,239.7,176.3c120.8,65.4,217.9,122.8,217.9,128.8c0,21.8-120.8,235.7-138.7,247.6c-9.9,5.9-53.5-5.9-95.1-27.7l-77.3-39.6l-11.9,202.1c-6,110.9-29.7,269.4-51.5,350.6c-21.8,81.2-37.6,150.5-33.7,152.5c2,3.9,79.2-37.6,166.4-91.1c309-186.2,731-338.7,1133.1-412c227.8-39.6,788.4-45.6,1010.3-9.9C6696.8-2981.5,7663.5-2197,8119.1-1050c67.4,174.3,144.6,459.6,182.3,685.4c31.7,192.2,31.7,758.7,0,950.9c-182.3,1101.4-853.8,2014.6-1842.3,2505.9c-782.5,388.3-1668,447.7-2503.9,168.4c-356.6-118.9-746.8-334.8-1040-572.5l-124.8-101v633.9c0,348.7,5.9,633.9,11.9,633.9c5.9,0,148.6-75.3,317-168.4c168.4-93.1,315-164.4,324.9-158.5c17.8,9.9,138.7,225.8,138.7,245.6c0,7.9-190.2,118.9-423.9,247.6L2734.9,4257l-75.3,148.6c-130.7,257.5-368.5,461.6-655.7,560.6C1891,5005.8,1621.6,5029.5,1522.5,5011.7z M1982.1,4655.1c202.1-81.2,350.6-229.8,441.7-439.8c39.6-91.1,39.6-140.6,45.6-3260.7l4-3167.6l116.9-122.8c233.8-251.6,336.8-487.3,352.6-812.2c11.9-253.6-25.8-439.8-134.7-661.7c-368.5-746.8-1430.2-909.2-2028.5-309c-257.5,255.6-380.3,584.4-360.5,970.7C435-2819,561.7-2539.7,797.5-2306c91.1,87.1,91.1,89.1,91.1,221.9v134.7h158.5h158.5v158.5v158.5h-158.5H888.6v237.7v237.7h158.5h158.5v158.5V-840h-158.5H888.6v237.7v237.7h158.5h158.5v158.5v158.5h-158.5H888.6V190v237.7h158.5h158.5v158.5v158.5h-158.5H888.6v237.7v237.7h158.5h158.5v158.5v158.5h-158.5H888.6v237.7v237.7h158.5h158.5V2171v158.5h-158.5H888.6v237.7v237.7h158.5h158.5v158.5v158.5h-158.5H888.6v237.7v237.7h158.5h158.5v158.5v158.5h-158.5H888.6v55.5c2,172.3,91.1,374.4,227.8,509.1c166.4,166.4,344.7,231.8,604.2,219.9C1821.6,4694.7,1926.6,4676.9,1982.1,4655.1z M5627.1,3062.4c600.2-126.8,1077.6-386.3,1513.4-820.1C7752.6,1630.2,8049.8,861.6,8014.1-16c-31.7-786.4-322.9-1452-873.6-2004.7c-552.7-550.7-1218.3-841.9-2004.7-873.6c-830-33.7-1584.8,245.7-2171.1,804.3l-174.3,164.4V110.8v2036.4l174.3,164.4C3438.1,2763.3,3965,3005,4702,3110C4856.5,3131.8,5440.8,3102.1,5627.1,3062.4z"/><path d="M1522.5,734.8v-3337.9l-99-49.5c-142.6-71.3-221.9-150.5-299.1-291.2c-59.4-110.9-67.3-140.6-67.3-273.4c0-122.8,9.9-166.4,55.5-251.6c77.3-148.6,154.5-227.8,295.2-305.1c110.9-59.4,140.6-67.4,273.4-67.4c130.7,2,164.4,9.9,273.4,67.4c227.8,122.8,346.7,313,348.7,556.6c2,132.7-5.9,162.4-65.4,273.4c-77.3,140.7-156.5,219.9-299.1,291.2l-99,49.5V734.8v3337.9H1681h-158.5V734.8z M1875.1-2951.7c87.2-65.4,126.8-160.5,116.9-291.2c-11.9-198.1-130.7-299.1-336.8-285.3c-198.1,11.9-299.1,130.8-285.3,336.8c7.9,130.8,51.5,204,154.5,257.5C1613.6-2886.4,1797.9-2896.3,1875.1-2951.7z"/><path d="M4698,4496.6l-299.1-501.2l91.1-53.5c51.5-29.7,112.9-67.3,136.7-81.2c41.6-27.7,47.5-19.8,208,249.6c91.1,152.5,168.4,277.3,174.3,277.3s83.2-124.8,174.3-275.4l164.4-277.3l83.2,49.5c45.6,29.7,103,61.4,128.8,75.3c29.7,13.9,43.6,33.7,37.6,55.5c-9.9,39.6-562.6,962.7-584.4,976.6C5005,4995.9,4864.4,4774,4698,4496.6z"/><path d="M6950.3,4072.7c-267.4-150.6-493.3-277.3-505.1-283.3c-19.8-7.9,71.3-196.1,118.9-249.6c21.8-21.8,71.3,0,297.1,124.8c148.6,85.2,275.4,148.6,281.3,142.6c5.9-4,13.9-152.5,19.8-326.9l11.9-318.9h130.8c71.3,0,140.6,7.9,150.5,15.8c23.8,15.8,15.8,1174.7-7.9,1170.8C7441.6,4348.1,7217.8,4223.3,6950.3,4072.7z"/><path d="M8069.6,2551.4c-5.9-13.9-9.9-83.2-9.9-150.6V2276l318.9-11.9c174.3-5.9,320.9-13.9,326.9-19.8c4-4-59.4-130.7-142.6-279.3c-126.8-229.8-146.6-277.3-124.8-297.1c37.6-35.7,233.8-138.7,243.7-128.8c17.8,17.8,566.5,1014.2,562.6,1018.2s-265.4,9.9-584.4,13.9C8178.5,2577.1,8079.5,2575.1,8069.6,2551.4z"/><path d="M8840.2,629.8c-29.7-51.5-67.4-112.9-81.2-136.7c-27.7-41.6-19.8-47.5,249.6-208c152.5-91.1,277.3-168.4,277.3-174.3s-124.8-83.2-277.3-174.3c-269.4-160.5-277.3-166.4-249.6-208c13.9-23.8,51.5-85.2,81.2-134.7l53.5-93.1l503.2,301.1c275.4,164.4,503.2,303.1,503.2,309s-225.8,144.6-503.2,311l-503.2,299.1L8840.2,629.8z"/><path d="M8549-1372.9c-51.5-29.7-103-63.4-114.9-75.3c-15.9-15.8,23.8-101,128.8-293.2c83.2-150.6,148.6-277.3,142.6-281.3c-3.9-4-150.5-13.9-326.9-19.8l-318.9-11.9v-130.8c0-71.3,7.9-140.6,15.8-152.5c15.8-23.8,1178.7-13.8,1168.8,11.9c-39.6,95.1-564.6,1010.3-580.4,1008.3C8654-1319.4,8602.5-1343.2,8549-1372.9z"/><path d="M7162.3-3258.8c-5.9-176.3-15.8-322.9-19.8-326.9c-4-6-130.8,59.4-281.3,142.6c-225.8,124.8-277.3,146.6-297.1,122.8c-33.7-35.6-136.7-231.8-126.8-241.7c17.8-17.8,1014.3-566.5,1018.2-562.6s9.9,265.4,13.9,584.4c5.9,481.4,4,580.4-19.8,590.3c-13.9,5.9-83.2,9.9-150.6,9.9h-124.8L7162.3-3258.8z"/><path d="M4529.6-3694.6l-130.7-79.2L4698-4277c166.4-277.3,305.1-503.2,311-503.2s144.6,225.8,311,503.2l299.1,503.2l-91.1,53.5c-51.5,29.7-112.9,67.4-136.7,81.2c-41.6,27.7-47.6,19.8-208-249.6c-91.1-152.5-168.4-277.3-174.3-279.3c-5.9,0-75.3,110.9-152.5,243.7C4650.4-3577.7,4686.1-3601.5,4529.6-3694.6z"/></g></g>
</svg>