<?xml version="1.0" encoding="utf-8"?>
<!-- Svg Vector Icons : http://www.onlinewebfonts.com/icon -->
<!DOCTYPE svg PUBLIC "-//W3C//DTD SVG 1.1//EN" "http://www.w3.org/Graphics/SVG/1.1/DTD/svg11.dtd">
<svg version="1.1" xmlns="http://www.w3.org/2000/svg" xmlns:xlink="http://www.w3.org/1999/xlink" x="0px" y="0px" viewBox="0 0 1000 1000" enable-background="new 0 0 1000 1000" xml:space="preserve">
<metadata> Svg Vector Icons : http://www.onlinewebfonts.com/icon </metadata>
<g><path d="M931.1,269.2c-18.9-23.1-57.1-43.8-90.7-59c14.1-46,20.9-76.8,20.9-76.8c9.9-35.5-10.6-61.3-37.3-73c0,0-115.3-50.3-325.9-50.3c-213.8,0-317.8,49-317.8,49c-26.3,12.4-47.7,39.7-36.7,74.4c0,0,6.5,30,20.3,74.9c-34.6,15.4-75.2,36.9-95,61c-10.8,13.2-25.5,41.9-2.7,86.2c40,77.4,174,163.5,267.2,178.5c34.7,36.1,74.5,63.5,119.9,75.2V892h-76c-27.1,0-49,21.9-49,49c0,27,21.9,49,49,49h250c27.1,0,49-22,49-49c0-27.1-21.9-49-49-49h-76V609.3c45.8-11.7,85.9-39.5,120.9-76c92.8-17.6,222.5-102.1,261.7-177.9C956.6,311.1,941.9,282.4,931.1,269.2z M109.8,332.9c-11.5-22.2-5.1-30-3-32.6c12-14.6,41.9-31.2,72.4-45.2c22.3,64.5,55.7,144.1,101.2,212.2C211.4,437.6,134.5,380.9,109.8,332.9z M890.2,332.9c-23.9,46.3-96.6,100.7-163.5,131.2c44-66.7,76.4-143.9,98.4-207.1c29,13.5,56.7,29.2,68.2,43.3C895.3,302.9,901.7,310.7,890.2,332.9z"/></g>
</svg>