<?xml version="1.0" encoding="utf-8"?>
<!-- Svg Vector Icons : http://www.onlinewebfonts.com/icon -->
<!DOCTYPE svg PUBLIC "-//W3C//DTD SVG 1.1//EN" "http://www.w3.org/Graphics/SVG/1.1/DTD/svg11.dtd">
<svg version="1.1" xmlns="http://www.w3.org/2000/svg" xmlns:xlink="http://www.w3.org/1999/xlink" x="0px" y="0px" viewBox="0 0 1000 1000" enable-background="new 0 0 1000 1000" xml:space="preserve">
<metadata> Svg Vector Icons : http://www.onlinewebfonts.com/icon </metadata>
<g><path d="M934.4,907.1l-80.3-538c-6.7-45.3-55.3-78.2-115.6-78.2h-50.6l0-114.4C687.8,84.7,603.6,10,500,10c-49.8,0-96.7,17.1-132,48.1c-36,31.5-55.8,73.6-55.8,118.5v114.4h-50.6c-60.3,0-108.9,32.9-115.7,78.2l-80.3,538c-2.3,15.5,2.5,30.7,14,44.1C100,974.7,139.9,990,181.3,990h637.4c41.4,0,81.3-15.3,101.6-38.9C931.8,937.8,936.7,922.6,934.4,907.1z M343.9,176.5c0-74.3,70-134.8,156.1-134.8c86.1,0,156.1,60.5,156.1,134.8v114.4H343.9V176.5z M896.3,930.4c-14.4,16.7-45.5,27.9-77.6,27.9H181.3c-32.1,0-63.3-11.2-77.6-27.8c-5.3-6.2-7.6-12.5-6.7-18.7l80.3-538c4.3-29.2,40.6-51.2,84.3-51.2h50.6v70.7c-27.7,7.1-48.3,32.3-48.3,62.2c0,35.4,28.8,64.2,64.1,64.2c35.4,0,64.1-28.8,64.1-64.2c0-29.9-20.6-55.1-48.3-62.2v-70.7h312.2v70.7c-27.7,7.1-48.3,32.3-48.3,62.2c0,35.4,28.8,64.2,64.1,64.2c35.4,0,64.1-28.8,64.1-64.2c0-29.9-20.6-55.1-48.3-62.2v-70.7h50.6c49.8,0,80.6,26.4,84.3,51.2l80.3,538C903.9,917.9,901.7,924.2,896.3,930.4z M328.1,423c17.9,0,32.4,14.6,32.4,32.5c0,17.9-14.5,32.5-32.4,32.5c-17.9,0-32.4-14.6-32.4-32.5C295.6,437.6,310.2,423,328.1,423z M671.9,423c17.9,0,32.4,14.6,32.4,32.5c0,17.9-14.5,32.5-32.4,32.5c-17.9,0-32.4-14.6-32.4-32.5C639.5,437.6,654.1,423,671.9,423z"/></g>
</svg>