<?xml version="1.0" encoding="utf-8"?>
<!-- Svg Vector Icons : http://www.onlinewebfonts.com/icon -->
<!DOCTYPE svg PUBLIC "-//W3C//DTD SVG 1.1//EN" "http://www.w3.org/Graphics/SVG/1.1/DTD/svg11.dtd">
<svg version="1.1" xmlns="http://www.w3.org/2000/svg" xmlns:xlink="http://www.w3.org/1999/xlink" x="0px" y="0px" viewBox="0 0 1000 1000" enable-background="new 0 0 1000 1000" xml:space="preserve">
<metadata> Svg Vector Icons : http://www.onlinewebfonts.com/icon </metadata>
<g><path d="M867.5,990h-735C64.8,990,10,935.1,10,867.5v-735C10,64.9,64.8,10,132.5,10h735C935.1,10,990,64.9,990,132.5v735C990,935.1,935.1,990,867.5,990z M928.7,132.5c0-33.8-27.4-61.2-61.3-61.2h-735c-33.8,0-61.2,27.4-61.2,61.2v735c0,33.8,27.4,61.2,61.2,61.2h735c33.8,0,61.3-27.4,61.3-61.2V132.5z M836.9,469.4c-16.9,0-30.6-13.7-30.6-30.6l1-201.3L599.3,445.3L556,402l208.2-208.2h-203c-16.9,0-30.6-13.7-30.6-30.6c0-16.9,13.7-30.6,30.6-30.6H836c8.6,0,16.3,3.5,21.8,9.2c5.9,5,9.7,12.4,9.7,21.4v275.6C867.5,455.7,853.8,469.4,836.9,469.4z M438.7,867.5H164c-8.6,0-16.3-3.5-21.8-9.2c-5.9-5-9.7-12.3-9.7-21.4V561.2c0-16.9,13.7-30.6,30.6-30.6c16.9,0,30.6,13.7,30.6,30.6l-1,201.4l207.9-207.9L444,598L235.7,806.2h203c16.9,0,30.6,13.7,30.6,30.6S455.7,867.5,438.7,867.5z"/></g>
</svg>