<?xml version="1.0" encoding="utf-8"?>
<!-- Svg Vector Icons : http://www.onlinewebfonts.com/icon -->
<!DOCTYPE svg PUBLIC "-//W3C//DTD SVG 1.1//EN" "http://www.w3.org/Graphics/SVG/1.1/DTD/svg11.dtd">
<svg version="1.1" xmlns="http://www.w3.org/2000/svg" xmlns:xlink="http://www.w3.org/1999/xlink" x="0px" y="0px" viewBox="0 0 1000 1000" enable-background="new 0 0 1000 1000" xml:space="preserve">
<metadata> Svg Vector Icons : http://www.onlinewebfonts.com/icon </metadata>
<g><path d="M949.2,952.4H50.8c-22.5,0-40.8-18.3-40.8-40.8V569.2c0-12.4,5.6-24.1,15.4-31.9l214.1-171c12.2-9.8,29-11.7,43.2-4.9c14.1,6.8,23.1,21.1,23.1,36.8v85L452,366.3c12.3-9.8,29-11.7,43.2-4.9c14.1,6.8,23.1,21.1,23.1,36.8v85.9l149.2-119.6c12.3-9.8,29-11.8,43.2-4.9c14.2,6.8,23.2,21.1,23.2,36.8v130.8H780V186.1c0-22.5,18.3-40.8,40.8-40.8h128.3c22.5,0,40.8,18.3,40.8,40.8v725.5C990,934.1,971.7,952.4,949.2,952.4z M91.7,870.7h816.6V226.9h-46.6v341.2c0,22.6-18.3,40.8-40.8,40.8H693.1c-22.6,0-40.8-18.3-40.8-40.8v-86.5L503.1,601.1c-12.3,9.8-29,11.8-43.2,4.9c-14.1-6.8-23.1-21.1-23.1-36.8v-86.1L290.4,600c-12.2,9.8-29,11.6-43.2,4.9c-14.1-6.8-23.1-21.1-23.1-36.8v-85L91.7,588.9V870.7z"/><path d="M336.6,774.3c0,13.4-11,24.4-24.4,24.4h-73.6c-13.4,0-24.4-11-24.4-24.4v-73.6c0-13.4,11-24.5,24.4-24.5h73.6c13.4,0,24.4,11,24.4,24.5V774.3z"/><path d="M540.7,773.6c0,13.4-11,24.5-24.4,24.5h-73.6c-13.4,0-24.4-11-24.4-24.5V700c0-13.4,11-24.4,24.4-24.4h73.6c13.4,0,24.4,11,24.4,24.4V773.6z"/><path d="M744.8,773.6c0,13.4-11,24.5-24.5,24.5h-73.6c-13.4,0-24.4-11-24.4-24.5V700c0-13.4,11-24.4,24.4-24.4h73.6c13.4,0,24.5,11,24.5,24.4V773.6z"/><path d="M430.3,178.5c-56.6,0-106.6-25.5-130-71.5c-10.3-20.1-2.3-44.7,17.8-54.9c20.1-10.3,44.7-2.3,54.9,17.8c15.7,30.8,67.8,36.9,113.7,13.5c34.6-22.5,78.1-34.1,119.4-30.6c44.6,3.7,82.6,25.4,104.4,59.3c12.2,19,6.7,44.3-12.3,56.4c-19,12.2-44.3,6.7-56.5-12.3c-10.9-17-31.3-21.1-42.5-22.1c-23-1.8-49.3,5.3-72,19.9C495.3,170.7,461.8,178.5,430.3,178.5z"/></g>
</svg>