<svg xmlns="http://www.w3.org/2000/svg" xmlns:xlink="http://www.w3.org/1999/xlink" version="1.1" x="0px" y="0px" viewBox="0 0 100 125" enable-background="new 0 0 100 100" xml:space="preserve"><symbol viewBox="-27.299 -39.024 54.598 78.047"><path fill="none" d="M11.157,34.02c-1.275-1.85-3.408-3.026-5.733-3.026c-2.13,0-4.118,0.985-5.424,2.607   c-1.306-1.622-3.294-2.607-5.423-2.607c-2.325,0-4.457,1.176-5.734,3.026c-1.275-1.85-3.408-3.026-5.733-3.026   c-1.913,0-3.648,0.776-4.908,2.029v-66.474c1.26,1.253,2.995,2.029,4.908,2.029c2.325,0,4.458-1.176,5.733-3.026   c1.277,1.85,3.409,3.026,5.734,3.026c2.129,0,4.117-0.986,5.423-2.607c1.306,1.622,3.294,2.607,5.424,2.607   c2.325,0,4.458-1.176,5.733-3.026c1.277,1.85,3.409,3.026,5.734,3.026c1.913,0,3.647-0.776,4.907-2.028v66.473   c-1.26-1.253-2.994-2.028-4.907-2.028C14.567,30.995,12.435,32.17,11.157,34.02z"/><path fill="#000000" stroke="#000000" stroke-width="3" stroke-miterlimit="10" d="M-20.463-37.524   c0.391,1.615,1.839,2.822,3.573,2.822c1.733,0,3.181-1.207,3.572-2.822h4.323c0.391,1.615,1.839,2.822,3.573,2.822   s3.182-1.207,3.573-2.822h3.701c0.391,1.615,1.839,2.822,3.573,2.822s3.182-1.207,3.573-2.822h4.322   c0.391,1.615,1.839,2.822,3.573,2.822s3.182-1.207,3.573-2.822h5.335v75.047h-5.266c-0.219-1.825-1.759-3.25-3.641-3.25   s-3.423,1.425-3.641,3.25H9.065c-0.219-1.825-1.759-3.25-3.641-3.25s-3.423,1.425-3.641,3.25h-3.564   c-0.219-1.825-1.759-3.25-3.641-3.25s-3.423,1.425-3.641,3.25h-4.186c-0.219-1.825-1.758-3.25-3.641-3.25   c-1.883,0-3.423,1.425-3.641,3.25h-5.267v-75.047H-20.463z"/></symbol><symbol viewBox="-30.282 -48.056 60.563 94.113"><path fill="#000000" stroke="#000000" stroke-width="6" stroke-miterlimit="10" d="M16.006,43.056   c-3.233-4.883-8.77-8.108-15.065-8.108s-11.832,3.225-15.065,8.108h-10.584v-88.113h10.584c3.233,4.883,8.77,8.108,15.065,8.108   s11.832-3.224,15.065-8.108H26.59v88.113H16.006z"/><line fill="none" stroke="#000000" stroke-width="5" stroke-linecap="round" stroke-linejoin="round" stroke-miterlimit="10" stroke-dasharray="7,8" x1="27.781" y1="-20.755" x2="-27.782" y2="-20.755"/></symbol><symbol viewBox="-24.712 -42.834 54.356 85.667"><path fill="#000000" stroke="#000000" stroke-width="5" stroke-miterlimit="10" d="M17.181,40.333h-4.475   c-0.466-2.355-2.539-4.131-5.031-4.131c-2.491,0-4.565,1.776-5.03,4.131h-4.883c-0.466-2.355-2.539-4.131-5.031-4.131   c-2.491,0-4.565,1.776-5.03,4.131h-4.883c-0.466-2.355-2.539-4.131-5.03-4.131v-72.023c2.622,0,4.76-1.974,5.069-4.512h4.806   c0.309,2.539,2.447,4.512,5.069,4.512c2.622,0,4.76-1.974,5.069-4.512h4.806c0.309,2.539,2.447,4.512,5.069,4.512   c2.622,0,4.76-1.974,5.069-4.512h4.398c0.309,2.539,2.447,4.512,5.069,4.512v72.023C19.72,36.202,17.647,37.978,17.181,40.333z"/><line fill="none" stroke="#000000" stroke-width="4" stroke-linecap="round" stroke-linejoin="round" stroke-miterlimit="10" stroke-dasharray="7,6" x1="-22.644" y1="-17.395" x2="27.644" y2="-17.395"/></symbol><symbol viewBox="-23.971 -42.094 47.944 84.188"><g><path fill="#000000" stroke="#000000" stroke-width="3.521" stroke-miterlimit="10" d="M17.182,40.333h-4.475    c-0.466-2.355-2.539-4.131-5.031-4.131c-2.491,0-4.565,1.776-5.03,4.131h-4.883c-0.466-2.355-2.539-4.131-5.031-4.131    c-2.491,0-4.565,1.776-5.03,4.131h-4.883c-0.466-2.355-2.539-4.131-5.03-4.131v-72.023c2.622,0,4.76-1.974,5.069-4.512h4.806    c0.309,2.539,2.447,4.512,5.069,4.512c2.622,0,4.76-1.974,5.069-4.512h4.806c0.309,2.539,2.447,4.512,5.069,4.512    c2.622,0,4.76-1.974,5.069-4.512h4.398c0.309,2.539,2.447,4.512,5.069,4.512v72.023C19.721,36.202,17.648,37.978,17.182,40.333z"/></g><polygon fill="#000000" stroke="#000000" stroke-width="3.8113" stroke-miterlimit="10" points="5.14,17.02 11.952,13.853    8.431,7.217 7.524,-0.241 0.124,1.057 -7.248,-0.385 -8.301,7.053 -11.951,13.62 -5.201,16.919 -0.084,22.42  "/></symbol><symbol id="a" viewBox="-21.087 -31.266 42.17 72.87"><path fill="#000000" stroke="#000000" stroke-width="5" stroke-miterlimit="10" d="M6.373,39.104h5.21c0-3.87,3.13-7,7-7v-53.87   c-3.87,0-7-3.14-7-7h-5.21"/><path fill="#000000" stroke="#000000" stroke-width="5" stroke-miterlimit="10" d="M-6.377-28.766h-5.21c0,3.86-3.13,7-7,7v53.87   c3.87,0,7,3.13,7,7h5.21"/><line fill="none" stroke="#000000" stroke-width="5" stroke-miterlimit="10" x1="2.373" y1="39.104" x2="-2.377" y2="39.104"/><line fill="none" stroke="#000000" stroke-width="5" stroke-miterlimit="10" x1="2.373" y1="-28.766" x2="-2.377" y2="-28.766"/><g><path stroke="#000000" stroke-width="0.9" stroke-miterlimit="10" d="M-9.901-10.118c0-0.994-0.806-1.8-1.8-1.8    s-1.8,0.806-1.8,1.8s0.806,1.8,1.8,1.8S-9.901-9.124-9.901-10.118z"/><path stroke="#000000" stroke-width="0.9" stroke-miterlimit="10" d="M-2.101-10.118c0-0.994-0.806-1.8-1.8-1.8    s-1.8,0.806-1.8,1.8s0.806,1.8,1.8,1.8S-2.101-9.124-2.101-10.118z"/><path stroke="#000000" stroke-width="0.9" stroke-miterlimit="10" d="M5.699-10.118c0-0.994-0.806-1.8-1.8-1.8s-1.8,0.806-1.8,1.8    s0.806,1.8,1.8,1.8S5.699-9.124,5.699-10.118z"/><path stroke="#000000" stroke-width="0.9" stroke-miterlimit="10" d="M13.499-10.118c0-0.994-0.806-1.8-1.8-1.8    s-1.8,0.806-1.8,1.8s0.806,1.8,1.8,1.8S13.499-9.124,13.499-10.118z"/></g></symbol><symbol viewBox="-21.086 -31.266 42.17 72.87"><use xlink:href="#a" width="42.17" height="72.87" x="-21.087" y="-31.266" transform="matrix(1 0 0 1 6.996482e-004 -2.671033e-004)" overflow="visible"/><line fill="none" stroke="#000000" stroke-width="4" stroke-miterlimit="10" x1="9.224" y1="13.75" x2="-9.223" y2="13.75"/></symbol><g display="none"><path display="inline" fill="#000000" d="M1188.792,954.743H-49.006c-2.084,0-3.789-1.705-3.789-3.789V-236.211   c0-2.084,1.705-3.789,3.789-3.789h1237.798c2.084,0,3.789,1.705,3.789,3.789V950.954   C1192.582,953.038,1190.877,954.743,1188.792,954.743z"/></g><g><g><path d="M51.316,16.307l0.351-0.014l-0.355,0.059c-0.003,0.045-0.006,0.09-0.006,0.137l0.02,0.361h2.155v-0.361    c0-0.048-0.003-0.094-0.01-0.181c0.097-2.298,1.971-4.098,4.268-4.098H58.1v-2.57h-0.361c-2.297,0-4.172-1.8-4.265-4.138    c0.003-0.046,0.006-0.093,0.006-0.14L53.461,5h-2.155v0.361c0,0.046,0.003,0.091,0.01,0.18c-0.096,2.298-1.971,4.098-4.268,4.098    h-0.361v2.57h0.361C49.345,12.209,51.22,14.009,51.316,16.307z M52.393,8.935c0.547,0.813,1.276,1.497,2.124,1.99    c-0.848,0.493-1.577,1.176-2.124,1.989c-0.547-0.813-1.276-1.497-2.123-1.989C51.117,10.431,51.847,9.748,52.393,8.935z"/><path d="M39.387,30.013l0.442-0.019l-0.447,0.075c-0.004,0.057-0.007,0.113-0.007,0.171l0.025,0.455h2.715V30.24    c0-0.059-0.004-0.117-0.013-0.227c0.122-2.894,2.483-5.16,5.376-5.16h0.455v-3.238h-0.455c-2.893,0-5.254-2.266-5.371-5.212    c0.004-0.058,0.008-0.116,0.008-0.175l-0.025-0.455h-2.714v0.455c0,0.058,0.004,0.114,0.013,0.227    c-0.122,2.894-2.483,5.16-5.376,5.16h-0.455v3.238h0.455C36.904,24.853,39.266,27.119,39.387,30.013z M40.744,20.729    c0.688,1.024,1.607,1.885,2.674,2.505c-1.067,0.621-1.986,1.482-2.674,2.505c-0.689-1.024-1.607-1.885-2.675-2.505    C39.137,22.613,40.056,21.753,40.744,20.729z"/><path d="M56.607,25.297l-0.026-0.479h-2.857v0.479c0,0.062,0.004,0.122,0.014,0.239c-0.128,3.046-2.614,5.432-5.659,5.432h-0.479    v3.407h0.479c3.045,0,5.531,2.386,5.659,5.432l0.465-0.02l-0.471,0.075c-0.004,0.061-0.008,0.122-0.008,0.184l0.026,0.479h2.857    v-0.479c0-0.062-0.004-0.123-0.014-0.239c0.128-3.046,2.614-5.432,5.659-5.432h0.479v-3.407h-0.479    c-3.045,0-5.531-2.386-5.654-5.488C56.603,25.419,56.607,25.358,56.607,25.297z M57.98,32.671    c-1.123,0.654-2.091,1.559-2.815,2.638c-0.725-1.078-1.692-1.984-2.815-2.638c1.123-0.653,2.09-1.559,2.815-2.637    C55.889,31.113,56.857,32.018,57.98,32.671z"/><path d="M33.705,86.726V95h11.671v-3.96c0.768,0.075,1.537,0.113,2.302,0.113h9.966c0.761,0,1.526-0.038,2.292-0.113V95h11.671    v-8.275c5.28-3.708,8.922-9.354,10.054-15.65l0.032-6.373l-0.031-0.348c-1.923-10.842-11.433-22.057-24.018-22.057h-9.966    c-4.569,0-8.97,1.263-12.826,3.668l-6.021-5.337v10.605c-2.003,2.433-3.525,5.238-4.463,8.217h-6.062v14.551h6.062    C25.983,79.152,29.243,83.599,33.705,86.726z M22.294,63.436h5.154l0.37-1.523c0.77-3.166,2.327-6.152,4.505-8.634l0.495-0.564    v-3.227l1.732,1.536l1.293-0.928c3.477-2.494,7.569-3.812,11.835-3.812h9.966c10.429,0,18.359,9.425,20.062,18.598v5.658    c-1.038,5.496-4.371,10.387-9.164,13.44l-0.922,0.588v6.446h-3.697v-4.714l-2.384,0.477c-1.294,0.259-2.604,0.39-3.894,0.39    h-9.966c-1.316,0-2.593-0.127-3.905-0.39l-2.384-0.477v4.714h-3.698v-6.446l-0.922-0.588c-4.514-2.876-7.693-7.296-8.951-12.446    l-0.372-1.52h-5.152V63.436z"/><path d="M44.879,53.704h16.152c0.826,0,1.495-0.669,1.495-1.495s-0.669-1.495-1.495-1.495H44.879    c-0.826,0-1.495,0.669-1.495,1.495S44.053,53.704,44.879,53.704z"/><circle cx="36.53" cy="62.888" r="2.513"/></g></g><text x="0" y="115" fill="#000000" font-size="5px" font-weight="bold" font-family="'Helvetica Neue', Helvetica, Arial-Unicode, Arial, Sans-serif">Created by Oksana Latysheva</text><text x="0" y="120" fill="#000000" font-size="5px" font-weight="bold" font-family="'Helvetica Neue', Helvetica, Arial-Unicode, Arial, Sans-serif">from the Noun Project</text></svg>