<?xml version="1.0" encoding="utf-8"?>
<!-- Svg Vector Icons : http://www.onlinewebfonts.com/icon -->
<!DOCTYPE svg PUBLIC "-//W3C//DTD SVG 1.1//EN" "http://www.w3.org/Graphics/SVG/1.1/DTD/svg11.dtd">
<svg version="1.1" xmlns="http://www.w3.org/2000/svg" xmlns:xlink="http://www.w3.org/1999/xlink" x="0px" y="0px" viewBox="0 0 1000 1000" enable-background="new 0 0 1000 1000" xml:space="preserve">
<metadata> Svg Vector Icons : http://www.onlinewebfonts.com/icon </metadata>
<g><path d="M864,8.2c0,0-118.6,91.4-133.4,148.3c-7.4,39.5,12.4,69.2,51.9,79.1c19.8,4.9,71.7,0,81.6-71.7C876.3,92.2,864,8.2,864,8.2L864,8.2z M733,312.2c0,0-4.9-59.3,103.8-61.8c98.8-4.9,135.9-12.4,153.2-37.1c-4.9,17.3-64.3,101.3-145.8,138.4C799.7,369,735.5,369,733,312.2L733,312.2z M658.9,428.3c0,0,17.3-44.5,101.3-44.5c79.1,2.5,150.7-14.8,163.1-29.7c-2.5,17.3-84,118.6-131,143.3c-56.8,32.1-91.4,32.1-113.7,12.4C668.7,497.5,644,475.3,658.9,428.3L658.9,428.3z M587.2,581.6c0,0,12.4-49.4,81.6-47c64.3-2.5,138.4-4.9,182.9-34.6c-24.7,81.6-116.1,143.3-163.1,158.2c-51.9,19.8-86.5,17.3-101.3-7.4C574.8,623.6,587.2,581.6,587.2,581.6L587.2,581.6z M532.8,712.5c12.4-9.9,37.1-19.8,71.7-19.8c61.8,0,135.9-22.2,155.7-29.7c19.8-24.7-44.5,76.6-84,103.8c-37.1,32.1-91.4,56.8-135.9,37.1C495.8,781.7,503.2,732.3,532.8,712.5L532.8,712.5z M634.1,42.8c0,0,27.2,126,76.6,158.2c49.4,32.1,14.8,89,2.5,98.8c-14.8,7.4-86.5,29.7-113.7-34.6C569.9,201,592.1,74.9,634.1,42.8L634.1,42.8z M557.5,213.3c0,0,14.8,91.4,74.1,180.4c17.3,37.1-32.1,61.8-34.6,61.8c-44.5,12.4-91.4,0-96.4-66.7C498.2,322.1,503.2,270.2,557.5,213.3L557.5,213.3z M471,366.6c0,0,12.4,49.4,42,91.4c22.2,29.7,54.4,64.3,59.3,76.6c12.4,29.7-2.5,54.4-22.2,61.8c-24.7,9.9-71.7,17.3-89-9.9C441.4,559.3,409.3,462.9,471,366.6L471,366.6z M387,509.9c0,0,56.8,91.4,101.3,145.8c37.1,59.3,9.9,93.9-27.2,98.8c-42,2.5-69.2,9.9-84-47C374.7,690.3,352.4,638.4,387,509.9L387,509.9z M429,774.3c0,0,66.7,34.6,79.1,32.1c12.4-2.5-123.6,185.3-123.6,185.3l-42-4.9C342.5,986.8,429,831.1,429,774.3L429,774.3z M135,230.6c0,0-27.2,64.3-14.8,135.9c7.4,39.5,61.8,29.7,69.2,24.7c7.4-4.9,42-27.2,14.8-71.7C179.4,272.6,135,230.6,135,230.6L135,230.6z M191.8,453c0,0-22.2-32.1,32.1-71.7c47-34.6,56.8-49.4,71.7-71.7c2.5,27.2,2.5,98.8-22.2,131C251.1,470.3,209.1,475.3,191.8,453L191.8,453z M201.7,542c0,0,0-34.6,37.1-54.4c47-27.2,84-64.3,81.6-76.6c2.5,17.3,7.4,93.9-22.2,143.3c-17.3,32.1-37.1,37.1-51.9,37.1C209.1,589,204.1,559.3,201.7,542L201.7,542z M226.4,660.6c0,0-2.5-29.7,27.2-54.4c37.1-24.7,71.7-47,86.5-81.6c9.9,14.8,12.4,103.8-19.8,153.2c-19.8,29.7-29.7,29.7-56.8,19.8C226.4,687.8,226.4,660.6,226.4,660.6L226.4,660.6z M253.6,759.5c2.5-9.9,17.3-27.2,37.1-39.5c19.8-12.4,59.3-44.5,71.7-69.2c4.9,22.2,2.5,54.4-4.9,89c-7.4,32.1-22.2,69.2-59.3,71.7C265.9,813.8,248.6,781.7,253.6,759.5L253.6,759.5z M11.4,334.4c0,0,71.7,64.3,116.1,64.3c44.5,2.5,47,37.1,39.5,54.4c-4.9,9.9-32.1,49.4-76.6,22.2C46,448.1,1.5,369,11.4,334.4L11.4,334.4z M43.5,460.5c0,0,49.4,59.3,123.6,69.2c37.1,2.5,29.7,44.5,17.3,56.8c-19.8,22.2-56.8,17.3-81.6,0C60.8,549.4,46,522.2,43.5,460.5L43.5,460.5z M63.3,581.6c0,0,39.5,37.1,131,59.3c34.6,9.9,27.2,37.1,17.3,49.4c-9.9,14.8-27.2,29.7-54.4,22.2C117.7,702.6,70.7,658.2,63.3,581.6L63.3,581.6z M78.1,692.8c0,0,51.9,24.7,135.9,51.9c47,19.8,39.5,54.4,19.8,69.2c-19.8,19.8-44.5,24.7-76.6-2.5C122.6,774.3,97.9,734.8,78.1,692.8L78.1,692.8z M221.4,831.1c0,0,54.4-2.5,59.3-9.9c4.9-4.9,12.4,150.7,12.4,150.7l-24.7,12.4C268.4,986.8,248.6,865.7,221.4,831.1L221.4,831.1z"/></g>
</svg>