<?xml version="1.0" encoding="utf-8"?>
<!-- Svg Vector Icons : http://www.onlinewebfonts.com/icon -->
<!DOCTYPE svg PUBLIC "-//W3C//DTD SVG 1.1//EN" "http://www.w3.org/Graphics/SVG/1.1/DTD/svg11.dtd">
<svg version="1.1" xmlns="http://www.w3.org/2000/svg" xmlns:xlink="http://www.w3.org/1999/xlink" x="0px" y="0px" viewBox="0 0 1000 1000" enable-background="new 0 0 1000 1000" xml:space="preserve">
<metadata> Svg Vector Icons : http://www.onlinewebfonts.com/icon </metadata>
<g><g transform="translate(0.000000,512.000000) scale(0.100000,-0.100000)"><path d="M3495.6,4990.2c-65.1-24.9-122.5-112.9-122.5-183.8c0-45.9,124.4-313.9,430.7-926.4c365.6-729.3,438.3-865.2,486.2-890c49.8-24.9,266-28.7,1734.1-28.7c1563.8,0,1682.5,1.9,1736,32.5c47.9,28.7,130.2,179.9,486.2,891.9c246.9,491.9,428.8,878.6,428.8,909.2c0,86.1-65.1,170.4-153.1,197.2l-78.5,24.9l-784.8-392.4l-782.9-390.5l-369.4,367.5c-201,202.9-392.4,377.1-423,388.5c-30.6,11.5-78.5,15.3-107.2,9.6c-30.6-7.7-187.6-149.3-421.1-382.8c-204.8-204.8-382.8-373.2-396.2-373.2c-13.4,0-369.4,172.3-790.5,382.8c-423,210.5-782.8,382.8-800.1,380.9C3551.1,5007.4,3516.7,4999.8,3495.6,4990.2z M6824.1,3784.4c53.6,0,212.5,70.8,625.9,277.5c306.2,153.1,555.1,273.7,555.1,268c0-5.7-107.2-225.8-239.2-488.1l-239.3-478.5l-1508.3,3.8l-1506.3,5.7l-235.4,467c-128.2,256.5-231.6,470.9-227.8,474.7c5.7,3.8,250.7-112.9,547.4-262.2c432.6-214.4,555.1-268,620.1-268c76.6,0,88.1,9.6,442.2,363.7l365.6,361.8l365.6-361.8C6730.3,3807.3,6759.1,3784.4,6824.1,3784.4z"/><path d="M4297.6,2528.7c-55.5-28.7-120.6-124.4-120.6-179.9c0-13.4,13.4-51.7,30.6-86.1c61.2-130.2-23-124.4,1816.4-124.4c1433.6,0,1665.2,3.8,1713.1,28.7c128.2,65.1,155,212.5,59.3,319.6l-55.5,63.2l-1692,3.8C4542.6,2557.5,4353.1,2555.5,4297.6,2528.7z"/><path d="M4295.7,1711.5c-55.5-24.9-248.8-289-564.6-769.4C3363.5,383.1,3051.5-172,2864-608.4c-65.1-149.3-91.9-189.5-116.8-185.6c-19.1,1.9-76.6,15.3-126.3,26.8l-93.8,19.1l13.4,134c17.2,160.8-5.7,223.9-101.4,290.9C2165.3-135.6,1554.8,0.3,620.7,80.7c-285.2,23-342.6,24.9-396.2,1.9C92.4,27.1,100.1,141.9,100.1-1938.7c0-1667.1,3.8-1883.4,30.6-1935.1c55.5-107.2,93.8-112.9,798.2-112.9c633.5,0,639.3,0,704.4,44c49.8,32.5,74.6,72.7,109.1,166.5c23,68.9,45.9,134,51.7,147.4c5.7,15.3,547.4-157,1688.2-537.9c924.5-310.1,1732.2-574.2,1795.4-587.6c157-34.5,465.1-28.7,645,9.6c461.3,99.5,1230.7,405.8,2729.4,1083.3c1213.5,551.3,1248,570.4,1248,694.8c0,97.6-126.3,292.8-302.4,468.9l-160.8,160.8l21.1,155c55.5,430.7,42.1,639.3-57.4,995.3C9214.8-528,8713.3,400.3,7999.4,1405.2c-107.2,147.4-216.3,283.3-245,300.5c-45.9,26.8-229.7,30.6-1734.1,28.7C4825.9,1734.4,4326.3,1726.8,4295.7,1711.5z M7651,1192.7c132.1-178,503.4-744.6,654.6-997.2c405.8-673.7,685.2-1307.3,754.1-1703.5c21.1-126.3,15.3-629.7-7.6-652.7c-5.7-5.7-55.5-1.9-109.1,9.6c-53.6,11.5-174.2,21-268,21c-149.3,0-252.7-21-901.5-181.8c-402-101.4-733.1-179.9-735-178c-1.9,3.8-17.2,67-34.5,139.7c-17.2,74.6-57.4,181.8-86.1,241.2c-49.8,95.7-51.7,111-26.8,143.6c15.3,19.1,53.6,91.9,86.1,160.8c51.7,107.2,59.3,145.5,59.3,277.5c0,126.3-9.6,174.2-55.5,273.7c-93.8,208.6-333,382.8-645,470.8L6225-750v409.6c0,315.8,5.7,411.5,24.9,411.5c47.9,0,216.3-91.8,273.7-151.2c61.3-59.3,90-116.8,112.9-220.1c19.1-90,109.1-164.6,195.2-164.6c149.3,0,229.7,116.8,197.1,285.2c-57.4,300.5-352.2,576.1-698.6,654.6l-105.3,23V630c0,204.8-61.3,283.3-222,283.3c-49.8,0-84.2-15.3-124.4-55.5c-51.7-53.6-55.5-65.1-55.5-208.6V496l-70.8-13.4c-40.2-5.7-130.2-36.4-201-67c-465.1-193.3-668-633.6-474.7-1025.9c93.8-189.5,258.4-313.9,564.6-419.2l172.3-59.3l5.7-197.1c3.8-181.8,1.9-197.1-28.7-189.5c-19.1,5.7-608.7,135.9-1311.1,292.8c-1035.5,229.7-1278.6,289-1278.6,313.9c0,51.7,308.2,664.2,488.1,968.5c178,304.3,442.1,715.9,668,1037.4l135.9,197.1h1525.5h1527.4L7651,1192.7z M5823.1-292.6c0-223.9-7.6-363.7-19.1-363.7c-38.3,0-183.7,65.1-260.3,116.8C5327.3-394,5380.9-124.1,5652.7,11.8c65.1,32.5,130.2,59.3,145.5,59.3C5817.3,71.1,5823.1-1.6,5823.1-292.6z M1208.3-399.8c507.2-72.7,920.7-174.2,920.7-225.8c0-36.4-72.7-436.4-116.8-643.1c-101.4-472.8-361.8-1437.4-553.2-2046.1l-78.5-250.7H942.3H502v1619.3v1621.2l187.6-13.4C791.1-344.2,1024.6-372.9,1208.3-399.8z M4272.7-1555.8c953.2-210.5,1776.2-398.1,1827.9-415.3c135.9-42.1,266.1-111,342.6-179.9c84.2-72.7,158.9-225.9,176.1-352.2l11.5-97.6l-256.5-61.2c-141.6-34.5-308.2-61.3-371.3-61.3c-67,0-501.5,76.6-1070,191.4c-1018.3,202.9-1027.9,204.8-1108.2,116.8c-74.6-82.3-47.9-258.4,45.9-308.2c21.1-11.5,467-107.2,991.5-212.5c1274.8-256.5,1047-268,2568.6,116.8c1114,279.5,1163.7,291,1303.5,279.5c80.4-5.7,197.2-28.7,258.4-51.7c189.5-70.8,421.1-243.1,379-283.3c-38.3-36.3-2109.3-962.7-2495.9-1117.8C5846-4402,5574.2-4446.1,5095.7-4277.6c-120.6,42.1-882.4,298.6-1693.9,568.5c-811.6,271.8-1475.7,493.8-1477.6,495.7c-1.9,1.9,51.7,195.2,120.6,430.7c124.4,426.9,329.2,1230.7,371.3,1447c34.4,179.9,36.4,185.7,82.3,174.2C2521.4-1167.3,3319.5-1343.4,4272.7-1555.8z M6343.7-1213.2c191.4-74.7,283.3-176.1,283.3-313.9c0-70.8-51.7-208.6-74.6-195.2c-30.6,15.3-191.4,89.9-254.6,116.7l-72.7,28.7v201c0,112.9,3.8,202.9,9.6,202.9C6238.4-1173,6288.2-1190.2,6343.7-1213.2z"/></g></g>
</svg>