<?xml version="1.0" encoding="utf-8"?>
<!-- Svg Vector Icons : http://www.onlinewebfonts.com/icon -->
<!DOCTYPE svg PUBLIC "-//W3C//DTD SVG 1.1//EN" "http://www.w3.org/Graphics/SVG/1.1/DTD/svg11.dtd">
<svg version="1.1" xmlns="http://www.w3.org/2000/svg" xmlns:xlink="http://www.w3.org/1999/xlink" x="0px" y="0px" viewBox="0 0 1000 1000" enable-background="new 0 0 1000 1000" xml:space="preserve">
<metadata> Svg Vector Icons : http://www.onlinewebfonts.com/icon </metadata>
<g><g transform="translate(0.000000,511.000000) scale(0.100000,-0.100000)"><path d="M4826.6,5014.8c-265.8-46.2-476.1-161.8-647.2-351.3c-543.2-603.2-275-1564.8,501.6-1800.5c208-64.7,517.7-53.2,718.8,23.1c732.7,284.3,940.7,1245.8,390.6,1812.1C5554.7,4940.8,5157.2,5072.6,4826.6,5014.8z"/><path d="M1091.6,4106.5c-226.5-94.8-365.2-228.8-466.9-450.7c-39.3-85.5-48.5-154.9-50.9-316.7c0-189.5,6.9-221.9,76.3-362.9c145.6-298.2,411.4-464.6,744.3-464.6s598.6,166.4,744.2,464.6c69.3,141,76.3,173.3,76.3,362.9c-2.3,180.3-9.2,226.5-67,344.4c-85.5,175.7-233.4,323.6-402.2,402.2C1556.1,4173.5,1274.1,4182.7,1091.6,4106.5z"/><path d="M8353.7,4124.9c-152.5-48.5-335.1-184.9-427.6-319c-295.8-436.9-131.7-1014.7,351.3-1236.6c189.5-85.5,466.9-85.5,656.4,0c379,175.6,580.1,591.7,471.5,980c-78.6,270.4-298.1,499.3-557,575.5C8709.7,4166.5,8487.8,4166.5,8353.7,4124.9z"/><path d="M4584,2389.1c-580.1-104-1074.8-358.3-1199.6-617.1c-48.5-99.4-48.5-127.1-48.5-1664.2v-1564.8h191.8c104,0,242.7-6.9,307.4-13.9l115.6-13.9l307.4-1507c168.7-827.4,323.6-1574,342.1-1661.8l34.7-154.9h411.4h411.4l23.1,108.6c13.9,62.4,157.2,809,319,1661.8l295.9,1553.2l101.7,13.9c57.8,7,184.9,13.9,284.3,13.9h182.6V110.2c0,1782,11.6,1664.2-201.1,1856C6074.8,2315.2,5226.5,2507,4584,2389.1z"/><path d="M1103.1,2301.3c-513.1-97.1-878.3-291.2-970.8-515.4c-25.4-60.1-32.4-323.6-32.4-1301.3v-1225h228.8h228.8l13.9-62.4c6.9-37,108.6-610.2,221.9-1278.2c115.6-668,214.9-1241.2,221.9-1275.9l13.9-64.7h365.2h365.2l13.9,62.4c6.9,37,101.7,584.8,210.3,1220.4c108.6,635.6,208,1211.1,221.9,1278.2l23.1,120.2h231.1h228.8V489.2c0,1197.3-2.3,1231.9-48.5,1329c-60.1,122.5-175.7,217.3-399.9,319C1898.2,2296.7,1431.3,2363.7,1103.1,2301.3z"/><path d="M8332.9,2301.3c-510.8-97.1-901.4-300.5-991.6-515.4c-23.1-60.1-30-325.9-30-1301.3v-1225h228.8h231.1l23.1-120.2c13.9-67,113.2-642.5,221.9-1278.2c108.6-635.6,203.4-1183.4,210.3-1220.4l13.9-62.4h365.2h365.2l13.9,62.4c6.9,37,106.3,610.2,221.9,1278.2c113.3,668,215,1241.2,221.9,1278.2l13.9,62.4h228.8H9900v1225c0,991.5-6.9,1241.2-32.4,1303.6C9726.6,2125.7,8887.6,2405.3,8332.9,2301.3z"/></g></g>
</svg>