<?xml version="1.0" encoding="utf-8"?>
<!-- Svg Vector Icons : http://www.onlinewebfonts.com/icon -->
<!DOCTYPE svg PUBLIC "-//W3C//DTD SVG 1.1//EN" "http://www.w3.org/Graphics/SVG/1.1/DTD/svg11.dtd">
<svg version="1.1" xmlns="http://www.w3.org/2000/svg" xmlns:xlink="http://www.w3.org/1999/xlink" x="0px" y="0px" viewBox="0 0 1000 1000" enable-background="new 0 0 1000 1000" xml:space="preserve">
<metadata> Svg Vector Icons : http://www.onlinewebfonts.com/icon </metadata>
<g><g transform="translate(0.000000,511.000000) scale(0.100000,-0.100000)"><path d="M3665.3,4997.7c-21.9-10-57.8-37.9-79.7-61.8c-39.9-43.9-39.9-75.8-45.8-2364.3c-4-2083.2-2-2328.4,27.9-2382.3c29.9-61.8,129.6-117.6,207.3-117.6c37.9,0,39.9-12,39.9-199.4c0-191.4,2-199.3,59.8-265.1c59.8-67.8,59.8-71.8,59.8-297.1c0-125.6,10-257.2,21.9-291c39.9-115.6,73.8-123.6,516.3-123.6c249.2,0,416.6,8,442.6,21.9c69.8,37.9,95.7,139.5,95.7,388.7c0,229.3,0,233.2,59.8,301c57.8,65.8,59.8,73.8,59.8,263.1V65.7l77.8,14c43.8,6,105.7,33.9,135.6,59.8l55.8,47.8l10,362.8l10,360.8l117.6,47.8l117.6,47.9l101.7-51.8c394.7-199.4,751.5-586.1,905-982.8c209.3-538.3,175.4-1230-87.7-1766.2c-103.7-213.3-143.5-261.2-131.6-157.5c8,57.8-4,81.7-61.8,139.6l-69.8,69.8l-1776.2-4l-1776.2-6l-53.8-55.8c-81.7-79.7-77.7-197.4,10-275.1l63.8-57.8h1076.5h1076.5v-167.5v-167.5l-57.8,57.8l-57.8,57.8h-781.5c-859.2,0-851.2,0-895.1-123.6c-12-33.9-21.9-173.4-21.9-309c0-261.1,19.9-342.9,99.7-384.7c23.9-12,267.1-21.9,651.9-21.9c1020.7-2,937-6,1004.7,59.8l57.8,57.8v-277.1v-277.1H3368.3c-946.9,0-1584.9-8-1614.8-19.9c-27.9-10-65.8-41.9-85.7-73.8c-31.9-47.8-35.9-103.7-35.9-484.4c0-488.4,8-518.3,143.5-558.2c53.8-15.9,805.4-19.9,2541.7-15.9l2468,6l53.8,55.8l55.8,53.8l6,384.7c6,374.8,6,384.7-39.9,452.5l-47.8,69.8l121.6,87.7c502.4,368.8,931,929,1158.2,1517.1c201.4,520.3,277.1,950.9,275.1,1555c0,323-8,424.6-45.9,598.1c-165.5,775.5-580.1,1363.6-1297.8,1842c-253.2,169.5-689.8,376.8-1026.7,488.4c-163.5,53.8-352.9,125.6-418.6,159.5c-65.8,33.9-131.6,61.8-143.5,61.8c-19.9,0-25.9,263.1-29.9,1176.2l-6,1176.2l-55.8,53.8l-53.8,55.8l-793.4,4C4062,5011.6,3687.2,5005.6,3665.3,4997.7z M5010.9,4258.1v-358.8h-538.3h-538.3v358.8v358.8h538.3h538.3V4258.1z M5010.9,3440.7v-59.8h-538.3h-538.3v59.8v59.8h538.3h538.3V3440.7z M5010.9,2766.9v-213.3l-97.7-35.9c-193.4-67.8-378.8-243.2-478.4-452.5c-45.9-97.7-51.8-133.6-51.8-338.9c0-213.3,4-237.2,57.8-348.9c83.7-169.5,265.1-346.9,436.6-418.6l133.6-57.8V685.7V470.4h-538.3h-538.3v1255.9v1255.9h538.3h538.3V2766.9z M5319.9,2162.9c105.7-25.9,237.2-133.6,289.1-239.2c51.8-99.7,51.8-279.1,2-386.7c-153.5-328.9-631.9-334.9-799.4-10c-57.8,115.6-67.8,203.3-31.9,328.9c41.9,141.6,151.5,255.2,285.1,297.1C5184.4,2188.8,5210.3,2190.8,5319.9,2162.9z M6302.7,1790.1c406.7-181.4,703.7-382.8,990.8-671.8c544.2-548.2,761.5-1242,667.8-2143c-49.8-470.5-153.5-835.3-358.8-1246c-255.2-512.3-616-917-1080.5-1212.1l-113.6-73.8l-89.7,135.6c-125.6,191.4-287.1,526.3-255.2,538.2c73.8,23.9,332.9,215.3,448.6,330.9c486.4,486.4,727.6,1198.1,669.8,1979.6c-53.8,723.6-422.6,1345.6-1032.7,1740.3c-131.6,85.7-197.3,139.6-193.4,159.5c6,15.9,27.9,81.7,49.8,143.5c27.9,77.8,41.8,161.5,41.8,265.1c0,89.7,8,149.5,19.9,149.5S6185.1,1841.9,6302.7,1790.1z M4731.8,1.9v-69.8h-259.2h-259.2V1.9v69.8h259.2h259.2V1.9z M4612.2-596.2v-131.6l-133.6,6l-135.6,6l-6,125.6l-6,123.6h141.5h139.5V-596.2z M6211-2280.7c-101.7-99.7-193.4-179.4-203.3-179.4c-11.9,0-19.9,69.8-19.9,159.5v159.5h155.5c83.7,0,167.5,10,183.4,19.9C6420.4-2061.4,6374.5-2125.2,6211-2280.7z M5589.1-2360.4v-219.3h-129.6h-129.6v219.3v219.3h129.6h129.6V-2360.4z M4532.5-2789.1c0-25.9-69.8-29.9-508.3-29.9s-508.3,4-508.3,29.9c0,25.9,69.8,29.9,508.3,29.9S4532.5-2763.1,4532.5-2789.1z M5694.7-3082.1c63.8-157.5,195.4-408.7,283.1-544.2c105.7-159.5,338.9-392.7,442.6-440.6l83.7-37.9l2-143.5v-145.5H5918h-588.1v707.7v707.7h161.5h159.5L5694.7-3082.1z M4931.2-4214.4v-179.4H3475.9H2020.7v179.4v179.4h1455.3h1455.3V-4214.4z"/></g></g>
</svg>