<?xml version="1.0" encoding="utf-8"?>
<!-- Svg Vector Icons : http://www.onlinewebfonts.com/icon -->
<!DOCTYPE svg PUBLIC "-//W3C//DTD SVG 1.1//EN" "http://www.w3.org/Graphics/SVG/1.1/DTD/svg11.dtd">
<svg version="1.1" xmlns="http://www.w3.org/2000/svg" xmlns:xlink="http://www.w3.org/1999/xlink" x="0px" y="0px" viewBox="0 0 1000 1000" enable-background="new 0 0 1000 1000" xml:space="preserve">
<metadata> Svg Vector Icons : http://www.onlinewebfonts.com/icon </metadata>
<g><path d="M981.3,313.7l-125.8,119c-11.6,11-30.4,11-41.9,0v-89.6H225.5c-21.7,0-39.2,17.6-39.2,39.2v145.6c-11.6-10.8-30.3-10.8-41.8,0.1l-56.3,53.2v-297c0-21.7,17.6-39.2,39.2-39.2h686.2V155c11.6-11,30.3-11,41.9,0l125.8,119C992.9,285,992.9,302.8,981.3,313.7z M144.4,567.3c11.6-11,30.3-11,41.9,0v89.6h588.2c10.8,0,20.6-4.4,27.7-11.5c7.1-7.1,11.5-16.9,11.5-27.7V472.1c11.6,10.8,30.2,10.8,41.8-0.1l56.3-53.2v297c0,21.7-17.6,39.2-39.2,39.2H186.4v50.8V845c-11.6,11-30.4,11-41.9,0L18.7,726c-2.9-2.7-5-5.9-6.5-9.2c-1.2-2.9-1.7-5.9-1.9-9c0-0.5-0.3-1-0.3-1.5c0-7.1,2.8-14.3,8.5-19.7l0,0l0,0c0.1-0.1,0.1-0.2,0.2-0.2L144.4,567.3z"/></g>
</svg>